# xmcd
#
# Track frame offsets: 
#        150
#        20004
#        37736
#        60008
#        82073
#        101985
#        123572
#        135951
#        155821
#        172476
#        196728
#        216105
#        237950
#        257950
#        280662
#        296694
#        311649
#
# Disc length: 4466 seconds
#
# Revision: 0
# Processed by: cddbd v1.5.2PL0 Copyright (c) Steve Scherf et al.
# Submitted via: ExactAudioCopy v0.95a5
#
DISCID=f9117011
DTITLE=李克勤 - 一生不变精选
DYEAR=2003
DGENRE=Acid Jazz
TTITLE0=一生不变
TTITLE1=深深深
TTITLE2=大会堂演奏厅
TTITLE3=月半小夜曲
TTITLE4=破晓时分
TTITLE5=眷恋
TTITLE6=旧欢如梦
TTITLE7=只想你会意
TTITLE8=一生挂念你
TTITLE9=蓝月亮
TTITLE10=一千零一夜
TTITLE11=红日
TTITLE12=寂寞烟雨天
TTITLE13=后会有期
TTITLE14=MY MELODY
TTITLE15=护花使者
TTITLE16=红楼梦
EXTD=
EXTT0=
EXTT1=
EXTT2=
EXTT3=
EXTT4=
EXTT5=
EXTT6=
EXTT7=
EXTT8=
EXTT9=
EXTT10=
EXTT11=
EXTT12=
EXTT13=
EXTT14=
EXTT15=
EXTT16=
PLAYORDER=
